<svg width="166" height="95" viewBox="0 0 166 95" fill="none" xmlns="http://www.w3.org/2000/svg">
<path d="M4.36 80C4.36 80.8533 4.55333 81.5933 4.94 82.22C5.32667 82.8333 5.83333 83.3 6.46 83.62C7.1 83.94 7.8 84.1 8.56 84.1C9.22667 84.1 9.81333 84.0133 10.32 83.84C10.8267 83.6667 11.28 83.44 11.68 83.16C12.08 82.88 12.4333 82.58 12.74 82.26V85.9C12.18 86.34 11.5667 86.6867 10.9 86.94C10.2333 87.1933 9.38667 87.32 8.36 87.32C7.24 87.32 6.20667 87.1467 5.26 86.8C4.31333 86.4533 3.5 85.9533 2.82 85.3C2.14 84.6467 1.61333 83.8733 1.24 82.98C0.866667 82.0867 0.68 81.0933 0.68 80C0.68 78.9067 0.866667 77.9133 1.24 77.02C1.61333 76.1267 2.14 75.3533 2.82 74.7C3.5 74.0467 4.31333 73.5467 5.26 73.2C6.20667 72.8533 7.24 72.68 8.36 72.68C9.38667 72.68 10.2333 72.8067 10.9 73.06C11.5667 73.3133 12.18 73.66 12.74 74.1V77.74C12.4333 77.42 12.08 77.12 11.68 76.84C11.28 76.5467 10.8267 76.32 10.32 76.16C9.81333 75.9867 9.22667 75.9 8.56 75.9C7.8 75.9 7.1 76.06 6.46 76.38C5.83333 76.7 5.32667 77.1667 4.94 77.78C4.55333 78.3933 4.36 79.1333 4.36 80ZM19.8834 87.2C18.8168 87.2 17.8901 87.0067 17.1034 86.62C16.3301 86.22 15.7301 85.66 15.3034 84.94C14.8768 84.22 14.6634 83.3733 14.6634 82.4C14.6634 81.4133 14.8701 80.56 15.2834 79.84C15.6968 79.12 16.2901 78.5667 17.0634 78.18C17.8501 77.7933 18.7768 77.6 19.8434 77.6C20.9101 77.6 21.8101 77.7867 22.5434 78.16C23.2768 78.52 23.8368 79.0467 24.2234 79.74C24.6101 80.4333 24.8034 81.2733 24.8034 82.26C24.8034 82.4067 24.8034 82.5533 24.8034 82.7C24.8034 82.8333 24.7901 82.9467 24.7634 83.04H16.3634V81.36H22.0434L21.3234 82.28C21.3901 82.1867 21.4434 82.0733 21.4834 81.94C21.5368 81.7933 21.5634 81.6733 21.5634 81.58C21.5634 81.18 21.4901 80.8333 21.3434 80.54C21.1968 80.2467 20.9901 80.02 20.7234 79.86C20.4568 79.7 20.1434 79.62 19.7834 79.62C19.3301 79.62 18.9501 79.72 18.6434 79.92C18.3368 80.12 18.1034 80.4267 17.9434 80.84C17.7968 81.24 17.7168 81.7467 17.7034 82.36C17.7034 82.92 17.7834 83.4 17.9434 83.8C18.1034 84.2 18.3434 84.5067 18.6634 84.72C18.9834 84.92 19.3768 85.02 19.8434 85.02C20.3768 85.02 20.8301 84.92 21.2034 84.72C21.5901 84.52 21.8968 84.22 22.1234 83.82L24.8234 84.48C24.3434 85.3867 23.6901 86.0667 22.8634 86.52C22.0501 86.9733 21.0568 87.2 19.8834 87.2ZM32.6483 81.4C32.6483 80.8533 32.5416 80.4333 32.3283 80.14C32.1283 79.8467 31.7883 79.7 31.3083 79.7C30.9883 79.7 30.7083 79.7667 30.4683 79.9C30.2283 80.0333 30.0416 80.2267 29.9083 80.48C29.7749 80.7333 29.7083 81.04 29.7083 81.4V87H26.6683V77.8H29.7083V79.18C29.9749 78.6733 30.3349 78.28 30.7883 78C31.2549 77.72 31.8283 77.58 32.5083 77.58C33.6549 77.58 34.4883 77.8867 35.0083 78.5C35.5283 79.1133 35.7883 79.9733 35.7883 81.08V87H32.6483V81.4ZM37.0922 77.8H43.2522V80.3H37.0922V77.8ZM38.7122 74.6H41.6122V87H38.7122V74.6ZM47.5194 77.8V87H44.5394V77.8H47.5194ZM50.1794 80.92C50.0194 80.76 49.846 80.6333 49.6594 80.54C49.486 80.4467 49.266 80.4 48.9994 80.4C48.706 80.4 48.446 80.48 48.2194 80.64C47.9927 80.8 47.8194 81.0333 47.6994 81.34C47.5794 81.6467 47.5194 82.02 47.5194 82.46L46.7994 81.4C46.7994 80.6667 46.9394 80.0133 47.2194 79.44C47.5127 78.8667 47.8927 78.4133 48.3594 78.08C48.826 77.7467 49.3127 77.58 49.8194 77.58C50.1527 77.58 50.4727 77.6467 50.7794 77.78C51.086 77.9133 51.3194 78.1 51.4794 78.34L50.1794 80.92ZM55.102 84.12C55.102 84.36 55.162 84.5667 55.282 84.74C55.402 84.9 55.562 85.0267 55.762 85.12C55.962 85.2 56.182 85.24 56.422 85.24C56.7687 85.24 57.0887 85.1667 57.382 85.02C57.6754 84.8733 57.9154 84.6533 58.102 84.36C58.2887 84.0667 58.382 83.7067 58.382 83.28L58.702 84.48C58.702 85.0667 58.542 85.5667 58.222 85.98C57.902 86.38 57.4887 86.6867 56.982 86.9C56.4754 87.1 55.9287 87.2 55.342 87.2C54.7554 87.2 54.2087 87.0933 53.702 86.88C53.2087 86.6533 52.8087 86.32 52.502 85.88C52.2087 85.44 52.062 84.9067 52.062 84.28C52.062 83.4 52.3754 82.7067 53.002 82.2C53.6287 81.68 54.5154 81.42 55.662 81.42C56.222 81.42 56.722 81.4733 57.162 81.58C57.6154 81.6867 58.002 81.82 58.322 81.98C58.642 82.14 58.882 82.3067 59.042 82.48V83.82C58.722 83.58 58.3487 83.4 57.922 83.28C57.5087 83.1467 57.0687 83.08 56.602 83.08C56.242 83.08 55.9554 83.12 55.742 83.2C55.5287 83.28 55.3687 83.4 55.262 83.56C55.1554 83.7067 55.102 83.8933 55.102 84.12ZM53.762 80.62L52.742 78.6C53.262 78.3467 53.8887 78.1067 54.622 77.88C55.3554 77.6533 56.1554 77.54 57.022 77.54C57.8354 77.54 58.562 77.66 59.202 77.9C59.842 78.1267 60.3487 78.46 60.722 78.9C61.0954 79.34 61.282 79.88 61.282 80.52V87H58.382V81.2C58.382 80.9733 58.342 80.78 58.262 80.62C58.1954 80.4467 58.0887 80.3 57.942 80.18C57.7954 80.06 57.6087 79.9733 57.382 79.92C57.1687 79.8667 56.922 79.84 56.642 79.84C56.2287 79.84 55.822 79.8867 55.422 79.98C55.0354 80.0733 54.6954 80.1867 54.402 80.32C54.1087 80.44 53.8954 80.54 53.762 80.62ZM63.5433 71.4H66.5833V87H63.5433V71.4ZM81.91 71.4H84.93V87H81.91V71.4ZM74.39 82.4C74.39 81.36 74.5967 80.4867 75.01 79.78C75.4367 79.0733 75.9833 78.5333 76.65 78.16C77.3167 77.7867 78.0233 77.6 78.77 77.6C79.5433 77.6 80.2233 77.7933 80.81 78.18C81.41 78.5667 81.8833 79.12 82.23 79.84C82.5767 80.5467 82.75 81.4 82.75 82.4C82.75 83.3867 82.5767 84.24 82.23 84.96C81.8833 85.68 81.41 86.2333 80.81 86.62C80.2233 87.0067 79.5433 87.2 78.77 87.2C78.0233 87.2 77.3167 87.0133 76.65 86.64C75.9833 86.2667 75.4367 85.7267 75.01 85.02C74.5967 84.3 74.39 83.4267 74.39 82.4ZM77.57 82.4C77.57 82.88 77.67 83.3 77.87 83.66C78.07 84.0067 78.3367 84.28 78.67 84.48C79.0033 84.6667 79.37 84.76 79.77 84.76C80.1167 84.76 80.45 84.6667 80.77 84.48C81.1033 84.2933 81.3767 84.0267 81.59 83.68C81.8033 83.32 81.91 82.8933 81.91 82.4C81.91 81.9067 81.8033 81.4867 81.59 81.14C81.3767 80.78 81.1033 80.5067 80.77 80.32C80.45 80.1333 80.1167 80.04 79.77 80.04C79.37 80.04 79.0033 80.14 78.67 80.34C78.3367 80.5267 78.07 80.8 77.87 81.16C77.67 81.5067 77.57 81.92 77.57 82.4ZM91.9538 87.2C90.8871 87.2 89.9604 87.0067 89.1738 86.62C88.4004 86.22 87.8004 85.66 87.3738 84.94C86.9471 84.22 86.7338 83.3733 86.7338 82.4C86.7338 81.4133 86.9404 80.56 87.3538 79.84C87.7671 79.12 88.3604 78.5667 89.1338 78.18C89.9204 77.7933 90.8471 77.6 91.9138 77.6C92.9804 77.6 93.8804 77.7867 94.6138 78.16C95.3471 78.52 95.9071 79.0467 96.2938 79.74C96.6804 80.4333 96.8738 81.2733 96.8738 82.26C96.8738 82.4067 96.8738 82.5533 96.8738 82.7C96.8738 82.8333 96.8604 82.9467 96.8338 83.04H88.4338V81.36H94.1138L93.3938 82.28C93.4604 82.1867 93.5138 82.0733 93.5538 81.94C93.6071 81.7933 93.6338 81.6733 93.6338 81.58C93.6338 81.18 93.5604 80.8333 93.4138 80.54C93.2671 80.2467 93.0604 80.02 92.7938 79.86C92.5271 79.7 92.2138 79.62 91.8538 79.62C91.4004 79.62 91.0204 79.72 90.7138 79.92C90.4071 80.12 90.1738 80.4267 90.0138 80.84C89.8671 81.24 89.7871 81.7467 89.7738 82.36C89.7738 82.92 89.8538 83.4 90.0138 83.8C90.1738 84.2 90.4138 84.5067 90.7338 84.72C91.0538 84.92 91.4471 85.02 91.9138 85.02C92.4471 85.02 92.9004 84.92 93.2738 84.72C93.6604 84.52 93.9671 84.22 94.1938 83.82L96.8938 84.48C96.4138 85.3867 95.7604 86.0667 94.9338 86.52C94.1204 86.9733 93.1271 87.2 91.9538 87.2ZM107.915 80C107.915 80.8533 108.108 81.5933 108.495 82.22C108.881 82.8333 109.388 83.3 110.015 83.62C110.655 83.94 111.355 84.1 112.115 84.1C112.781 84.1 113.368 84.0133 113.875 83.84C114.381 83.6667 114.835 83.44 115.235 83.16C115.635 82.88 115.988 82.58 116.295 82.26V85.9C115.735 86.34 115.121 86.6867 114.455 86.94C113.788 87.1933 112.941 87.32 111.915 87.32C110.795 87.32 109.761 87.1467 108.815 86.8C107.868 86.4533 107.055 85.9533 106.375 85.3C105.695 84.6467 105.168 83.8733 104.795 82.98C104.421 82.0867 104.235 81.0933 104.235 80C104.235 78.9067 104.421 77.9133 104.795 77.02C105.168 76.1267 105.695 75.3533 106.375 74.7C107.055 74.0467 107.868 73.5467 108.815 73.2C109.761 72.8533 110.795 72.68 111.915 72.68C112.941 72.68 113.788 72.8067 114.455 73.06C115.121 73.3133 115.735 73.66 116.295 74.1V77.74C115.988 77.42 115.635 77.12 115.235 76.84C114.835 76.5467 114.381 76.32 113.875 76.16C113.368 75.9867 112.781 75.9 112.115 75.9C111.355 75.9 110.655 76.06 110.015 76.38C109.388 76.7 108.881 77.1667 108.495 77.78C108.108 78.3933 107.915 79.1333 107.915 80ZM121.918 83.4C121.918 83.9333 122.018 84.3533 122.218 84.66C122.418 84.9533 122.765 85.1 123.258 85.1C123.591 85.1 123.871 85.0333 124.098 84.9C124.338 84.7667 124.525 84.5733 124.658 84.32C124.791 84.0667 124.858 83.76 124.858 83.4V77.8H127.878V87H124.858V85.62C124.578 86.1133 124.211 86.5067 123.758 86.8C123.305 87.08 122.738 87.22 122.058 87.22C120.911 87.22 120.071 86.9133 119.538 86.3C119.018 85.6733 118.758 84.8133 118.758 83.72V77.8H121.918V83.4ZM130.762 83.66C131.229 84.0467 131.649 84.3533 132.022 84.58C132.409 84.7933 132.749 84.9467 133.042 85.04C133.335 85.12 133.589 85.16 133.802 85.16C134.109 85.16 134.335 85.0933 134.482 84.96C134.629 84.8267 134.702 84.6533 134.702 84.44C134.702 84.24 134.642 84.0733 134.522 83.94C134.402 83.7933 134.195 83.6533 133.902 83.52C133.622 83.3867 133.235 83.2467 132.742 83.1C132.302 82.94 131.882 82.7533 131.482 82.54C131.095 82.3133 130.775 82.0133 130.522 81.64C130.269 81.2667 130.142 80.7867 130.142 80.2C130.142 79.64 130.289 79.1667 130.582 78.78C130.889 78.3933 131.295 78.1 131.802 77.9C132.322 77.7 132.915 77.6 133.582 77.6C134.115 77.6 134.609 77.66 135.062 77.78C135.529 77.9 135.962 78.06 136.362 78.26C136.775 78.46 137.162 78.6933 137.522 78.96L136.442 80.92C136.055 80.56 135.615 80.2667 135.122 80.04C134.629 79.8 134.175 79.68 133.762 79.68C133.482 79.68 133.269 79.7333 133.122 79.84C132.989 79.9467 132.922 80.0867 132.922 80.26C132.922 80.46 133.002 80.6267 133.162 80.76C133.335 80.8933 133.575 81.02 133.882 81.14C134.202 81.2467 134.589 81.3867 135.042 81.56C135.522 81.7333 135.962 81.9333 136.362 82.16C136.775 82.3867 137.102 82.6733 137.342 83.02C137.595 83.3667 137.722 83.8267 137.722 84.4C137.722 85.3867 137.415 86.1333 136.802 86.64C136.202 87.1333 135.355 87.38 134.262 87.38C133.595 87.38 132.975 87.3 132.402 87.14C131.842 86.9933 131.322 86.7933 130.842 86.54C130.362 86.2733 129.915 85.98 129.502 85.66L130.762 83.66ZM138.303 77.8H144.463V80.3H138.303V77.8ZM139.923 74.6H142.823V87H139.923V74.6ZM145.21 82.4C145.21 81.4267 145.437 80.58 145.89 79.86C146.344 79.14 146.97 78.58 147.77 78.18C148.57 77.78 149.47 77.58 150.47 77.58C151.47 77.58 152.364 77.78 153.15 78.18C153.95 78.58 154.577 79.14 155.03 79.86C155.497 80.58 155.73 81.4267 155.73 82.4C155.73 83.36 155.497 84.2 155.03 84.92C154.577 85.64 153.95 86.2 153.15 86.6C152.364 87 151.47 87.2 150.47 87.2C149.47 87.2 148.57 87 147.77 86.6C146.97 86.2 146.344 85.64 145.89 84.92C145.437 84.2 145.21 83.36 145.21 82.4ZM148.31 82.4C148.31 82.88 148.41 83.2933 148.61 83.64C148.81 83.9733 149.07 84.2333 149.39 84.42C149.71 84.6067 150.07 84.7 150.47 84.7C150.857 84.7 151.21 84.6067 151.53 84.42C151.864 84.2333 152.124 83.9733 152.31 83.64C152.51 83.2933 152.61 82.88 152.61 82.4C152.61 81.92 152.51 81.5067 152.31 81.16C152.124 80.8133 151.864 80.5467 151.53 80.36C151.21 80.1733 150.857 80.08 150.47 80.08C150.07 80.08 149.71 80.1733 149.39 80.36C149.07 80.5467 148.81 80.8133 148.61 81.16C148.41 81.5067 148.31 81.92 148.31 82.4ZM158.047 83.66C158.514 84.0467 158.934 84.3533 159.307 84.58C159.694 84.7933 160.034 84.9467 160.327 85.04C160.621 85.12 160.874 85.16 161.087 85.16C161.394 85.16 161.621 85.0933 161.767 84.96C161.914 84.8267 161.987 84.6533 161.987 84.44C161.987 84.24 161.927 84.0733 161.807 83.94C161.687 83.7933 161.481 83.6533 161.187 83.52C160.907 83.3867 160.521 83.2467 160.027 83.1C159.587 82.94 159.167 82.7533 158.767 82.54C158.381 82.3133 158.061 82.0133 157.807 81.64C157.554 81.2667 157.427 80.7867 157.427 80.2C157.427 79.64 157.574 79.1667 157.867 78.78C158.174 78.3933 158.581 78.1 159.087 77.9C159.607 77.7 160.201 77.6 160.867 77.6C161.401 77.6 161.894 77.66 162.347 77.78C162.814 77.9 163.247 78.06 163.647 78.26C164.061 78.46 164.447 78.6933 164.807 78.96L163.727 80.92C163.341 80.56 162.901 80.2667 162.407 80.04C161.914 79.8 161.461 79.68 161.047 79.68C160.767 79.68 160.554 79.7333 160.407 79.84C160.274 79.9467 160.207 80.0867 160.207 80.26C160.207 80.46 160.287 80.6267 160.447 80.76C160.621 80.8933 160.861 81.02 161.167 81.14C161.487 81.2467 161.874 81.3867 162.327 81.56C162.807 81.7333 163.247 81.9333 163.647 82.16C164.061 82.3867 164.387 82.6733 164.627 83.02C164.881 83.3667 165.007 83.8267 165.007 84.4C165.007 85.3867 164.701 86.1333 164.087 86.64C163.487 87.1333 162.641 87.38 161.547 87.38C160.881 87.38 160.261 87.3 159.687 87.14C159.127 86.9933 158.607 86.7933 158.127 86.54C157.647 86.2733 157.201 85.98 156.787 85.66L158.047 83.66Z" fill="white"/>
<path d="M84 1C97.2333 1 108 11.7667 108 25C108 38.2333 97.2333 49 84 49C70.7667 49 60 38.2333 60 25C60 11.7667 70.7667 1 84 1Z" fill="white" stroke="white"/>
<path d="M80.1978 7.40149C79.3964 7.58073 78.5793 7.81269 77.7644 8.09236L77.4979 8.42179C73.1639 13.7738 71.4336 18.1811 71.8547 22.7303C72.2756 27.2795 74.8258 31.566 77.4979 37.9825L79.5272 40.4825C79.1093 35.4123 77.4449 31.5135 77.1295 26.4825C76.7238 20.0119 77.4265 13.4731 80.1978 7.40149ZM74.7319 9.4826C74.3243 9.70793 73.1997 10.2176 72.8136 10.4658C69.4219 12.6475 66.1003 16.8544 66.1003 20C65.6207 27.1517 66.8554 28.8762 69.9365 32.4999C70.2486 32.8671 75.3679 36.6236 75.6909 36.9999C74.0817 32.9976 69.9365 26.3592 70.3984 22.7303C70.0052 18.4807 71.7078 14.0427 74.7319 9.4826Z" fill="#2E8DD6"/>
<path d="M82.8427 7C82.7713 7.00526 82.6995 7.01121 82.6275 7.01739C79.4881 13.0163 78.5617 19.571 78.9872 26.3592C79.4062 33.0415 80.8524 35.9038 80.9658 42.9999H82.8427V7Z" fill="#2E8DD6"/>
<path d="M87.454 7.3528C88.2588 7.51497 89.0803 7.72952 89.9004 7.99181L90.1734 8.3155C94.6111 13.5743 96.4272 17.9439 96.0952 22.501C95.7633 27.0583 93.2974 31.3981 90.7513 37.8701L88.7713 40.4127C89.09 35.3347 90.6779 31.4013 90.8948 26.3647C91.1739 19.8867 90.3435 13.3642 87.454 7.3528ZM92.9595 9.31729C93.3715 9.53392 94.5058 10.0196 94.8967 10.2595C98.3302 12.3686 101.46 16.5229 101.795 19.649C102.545 26.6517 101.214 28.5395 98.2039 32.2279C97.8991 32.6016 92.8543 36.4662 92.5387 36.8493C94.0693 32.8136 98.0839 26.0884 97.5511 22.4701C97.8611 18.213 96.0721 13.8122 92.9595 9.31729Z" fill="#2E8DD6"/>
<path d="M84.8019 7.00762C84.8734 7.01136 84.9453 7.01579 85.0174 7.02043C88.2734 12.9514 89.3278 19.485 89.0351 26.2808C88.7468 32.9706 86.6948 35.9029 86.7202 43L84.8021 43L84.8019 7.00762Z" fill="#2E8DD6"/>
<path d="M80.1978 7.40149C79.3964 7.58073 78.5793 7.81269 77.7644 8.09236L77.4979 8.42179C73.1639 13.7738 71.4336 18.1811 71.8547 22.7303C72.2756 27.2795 74.8258 31.566 77.4979 37.9825L79.5272 40.4825C79.1093 35.4123 77.4449 31.5135 77.1295 26.4825C76.7238 20.0119 77.4265 13.4731 80.1978 7.40149ZM74.7319 9.4826C74.3243 9.70793 73.1997 10.2176 72.8136 10.4658C69.4219 12.6475 66.1003 16.8544 66.1003 20C65.6207 27.1517 66.8554 28.8762 69.9365 32.4999C70.2486 32.8671 75.3679 36.6236 75.6909 36.9999C74.0817 32.9976 69.9365 26.3592 70.3984 22.7303C70.0052 18.4807 71.7078 14.0427 74.7319 9.4826Z" stroke="#2E8DD6"/>
<path d="M82.8427 7C82.7713 7.00526 82.6995 7.01121 82.6275 7.01739C79.4881 13.0163 78.5617 19.571 78.9872 26.3592C79.4062 33.0415 80.8524 35.9038 80.9658 42.9999H82.8427V7Z" stroke="#2E8DD6"/>
<path d="M87.454 7.3528C88.2588 7.51497 89.0803 7.72952 89.9004 7.99181L90.1734 8.3155C94.6111 13.5743 96.4272 17.9439 96.0952 22.501C95.7633 27.0583 93.2974 31.3981 90.7513 37.8701L88.7713 40.4127C89.09 35.3347 90.6779 31.4013 90.8948 26.3647C91.1739 19.8867 90.3435 13.3642 87.454 7.3528ZM92.9595 9.31729C93.3715 9.53392 94.5058 10.0196 94.8967 10.2595C98.3302 12.3686 101.46 16.5229 101.795 19.649C102.545 26.6517 101.214 28.5395 98.2039 32.2279C97.8991 32.6016 92.8543 36.4662 92.5387 36.8493C94.0693 32.8136 98.0839 26.0884 97.5511 22.4701C97.8611 18.213 96.0721 13.8122 92.9595 9.31729Z" stroke="#2E8DD6"/>
<path d="M84.8019 7.00762C84.8734 7.01136 84.9453 7.01579 85.0174 7.02043C88.2734 12.9514 89.3278 19.485 89.0351 26.2808C88.7468 32.9706 86.6948 35.9029 86.7202 43L84.8021 43L84.8019 7.00762Z" stroke="#2E8DD6"/>
</svg>
